<?xml version="1.0" encoding="utf-8"?>
<!-- Generator: Adobe Illustrator 16.0.0, SVG Export Plug-In . SVG Version: 6.00 Build 0)  -->
<!DOCTYPE svg PUBLIC "-//W3C//DTD SVG 1.1//EN" "http://www.w3.org/Graphics/SVG/1.1/DTD/svg11.dtd" [
	<!ENTITY ns_extend "http://ns.adobe.com/Extensibility/1.0/">
	<!ENTITY ns_ai "http://ns.adobe.com/AdobeIllustrator/10.0/">
	<!ENTITY ns_graphs "http://ns.adobe.com/Graphs/1.0/">
	<!ENTITY ns_vars "http://ns.adobe.com/Variables/1.0/">
	<!ENTITY ns_imrep "http://ns.adobe.com/ImageReplacement/1.0/">
	<!ENTITY ns_sfw "http://ns.adobe.com/SaveForWeb/1.0/">
	<!ENTITY ns_custom "http://ns.adobe.com/GenericCustomNamespace/1.0/">
	<!ENTITY ns_adobe_xpath "http://ns.adobe.com/XPath/1.0/">
]>
<svg version="1.1" id="Слой_1" xmlns:x="&ns_extend;" xmlns:i="&ns_ai;" xmlns:graph="&ns_graphs;"
	 xmlns="http://www.w3.org/2000/svg" xmlns:xlink="http://www.w3.org/1999/xlink" x="0px" y="0px" width="168px" height="189px"
	 viewBox="0 0 168 189" enable-background="new 0 0 168 189" xml:space="preserve">
<metadata>
	<sfw  xmlns="&ns_sfw;">
		<slices></slices>
		<sliceSourceBounds  height="178.384" width="159.771" bottomLeftOrigin="true" y="332.616" x="216.615"></sliceSourceBounds>
	</sfw>
</metadata>
<polygon fill="#CF9500" points="105.439,22.854 124.734,33.973 75.428,119.177 56.131,108.059 "/>
<linearGradient id="SVGID_1_" gradientUnits="userSpaceOnUse" x1="56.1509" y1="121.4297" x2="109.6484" y2="121.4297" gradientTransform="matrix(1 0 0 -1 -0.02 188.0947)">
	<stop  offset="0" style="stop-color:#FACD3B"/>
	<stop  offset="1" style="stop-color:#F8AE00"/>
</linearGradient>
<polyline fill="url(#SVGID_1_)" points="60.321,110.475 56.131,108.059 105.439,22.854 109.629,25.271 "/>
<linearGradient id="SVGID_2_" gradientUnits="userSpaceOnUse" x1="3.1353" y1="65.6753" x2="142.3613" y2="65.6753" gradientTransform="matrix(1 0 0 -1 -0.02 188.0947)">
	<stop  offset="0" style="stop-color:#DCB531"/>
	<stop  offset="1" style="stop-color:#C98C00"/>
</linearGradient>
<polygon fill="url(#SVGID_2_)" points="3.115,62.455 93.273,67.088 142.341,142.703 26.563,182.384 "/>
<polyline opacity="0.1" enable-background="new    " points="118.652,103.425 142.341,142.703 26.563,182.384 "/>
<polyline fill="#F8BE00" points="100.402,118.531 3.115,62.455 23.661,26.964 120.949,83.039 "/>
<polyline fill="#CA8C00" points="120.949,83.039 162.887,107.211 142.341,142.703 100.402,118.531 "/>
<linearGradient id="SVGID_3_" gradientUnits="userSpaceOnUse" x1="100.0605" y1="165.7246" x2="136.8008" y2="165.7246" gradientTransform="matrix(1 0 0 -1 -0.02 188.0947)">
	<stop  offset="0" style="stop-color:#FACD3B"/>
	<stop  offset="1" style="stop-color:#F8AE00"/>
</linearGradient>
<path fill="url(#SVGID_3_)" d="M100.041,22.371c0-10.152,8.218-18.371,18.37-18.371c10.151,0,18.37,8.219,18.37,18.371
	c0,10.151-8.219,18.369-18.37,18.369C108.259,40.74,100.041,32.522,100.041,22.371z"/>
<g>
	<g>
		<path fill="#CF9500" d="M122.878,4.57c-10.839,2.383-18.97,12.053-18.97,23.602c0,2.259,0.316,4.443,0.896,6.518
			c3.36,3.709,8.201,6.051,13.604,6.051c10.151,0,18.37-8.218,18.37-18.369C136.782,13.763,130.865,6.565,122.878,4.57z"/>
	</g>
</g>
</svg>
