<?xml version="1.0" encoding="utf-8"?>
<!-- Generator: Adobe Illustrator 16.0.0, SVG Export Plug-In . SVG Version: 6.00 Build 0)  -->
<!DOCTYPE svg PUBLIC "-//W3C//DTD SVG 1.1//EN" "http://www.w3.org/Graphics/SVG/1.1/DTD/svg11.dtd" [
	<!ENTITY ns_extend "http://ns.adobe.com/Extensibility/1.0/">
	<!ENTITY ns_ai "http://ns.adobe.com/AdobeIllustrator/10.0/">
	<!ENTITY ns_graphs "http://ns.adobe.com/Graphs/1.0/">
	<!ENTITY ns_vars "http://ns.adobe.com/Variables/1.0/">
	<!ENTITY ns_imrep "http://ns.adobe.com/ImageReplacement/1.0/">
	<!ENTITY ns_sfw "http://ns.adobe.com/SaveForWeb/1.0/">
	<!ENTITY ns_custom "http://ns.adobe.com/GenericCustomNamespace/1.0/">
	<!ENTITY ns_adobe_xpath "http://ns.adobe.com/XPath/1.0/">
]>
<svg version="1.1" id="Capa_1" xmlns:x="&ns_extend;" xmlns:i="&ns_ai;" xmlns:graph="&ns_graphs;"
	 xmlns="http://www.w3.org/2000/svg" xmlns:xlink="http://www.w3.org/1999/xlink" x="0px" y="0px" width="595.281px"
	 height="569.547px" viewBox="123.304 12.868 595.281 569.547" enable-background="new 123.304 12.868 595.281 569.547"
	 xml:space="preserve">
<metadata>
	<sfw  xmlns="&ns_sfw;">
		<slices></slices>
		<sliceSourceBounds  height="569.547" width="595.281" bottomLeftOrigin="true" y="12.726" x="122.859"></sliceSourceBounds>
	</sfw>
</metadata>
<path fill="#2683c3" d="M707.382,236.347c-15.723-87.115-44.411-158.789-60.114-193.761c-8.248-18.365-26.635-30.048-46.744-29.712l-171.46,2.689
	c-18.521,0.292-35.852,10.396-45.227,26.375c-10.604,18.072-9.629,40.8,2.483,57.897l39.184,55.319
	c13.71,19.353,38.608,26.594,60.562,17.603l55.468-22.717c2.522,15.491-0.169,30.547-8.078,44.861
	c-19.75,35.748-30.188,74.569-30.563,113.064c-12.72-8.869-25.784-16.174-39.146-21.857c-28.495-12.121-58.325-16.955-88.645-14.369
	c-6.64,0.566-12.994,1.464-19.04,2.594c-31.948-83.664-90.779-109.231-135.132-115.807c-48.906-7.251-89.913,6.395-91.635,6.979
	c-4.614,1.565-7.084,6.572-5.522,11.188c1.563,4.617,6.57,7.095,11.189,5.54c0.388-0.13,39.209-12.953,83.991-6.145
	c56.214,8.546,96.449,42.965,119.737,102.317c-30.897,8.713-50.259,22.161-51.336,22.921c-3.985,2.813-4.937,8.32-2.124,12.306
	c2.812,3.985,8.321,4.937,12.307,2.124c0.316-0.224,32.261-22.431,79.066-26.42c27.424-2.34,54.419,2.044,80.232,13.024
	c32.623,13.877,63.559,38.416,91.95,72.936c1.745,2.124,4.273,3.222,6.824,3.222c1.975,0,3.96-0.658,5.605-2.01
	c3.767-3.099,4.31-8.663,1.21-12.429c-13.308-16.182-27.194-30.318-41.58-42.361l-0.067-1.33
	c-2.029-39.516,7.701-79.953,28.14-116.944c10.585-19.158,13.688-39.395,9.308-60.236l27.08-11.091
	c4.513-1.849,6.673-7.005,4.824-11.518c-1.849-4.514-7.008-6.671-11.519-4.824l-99.236,40.643
	c-14.299,5.858-30.522,1.139-39.456-11.469l-39.184-55.319c-8.106-11.444-8.76-26.655-1.662-38.753
	c6.275-10.694,17.875-17.459,30.271-17.652l171.461-2.69c13.107-0.196,25,7.364,30.355,19.288
	c15.372,34.234,43.457,104.398,58.844,189.664c18.379,101.838,13.546,194.374-14.362,275.126
	c-93.403,37.402-173.565,53.604-244.943,49.529c-48.494-2.771-93.175-15.166-132.799-36.842
	c-44.517-24.351-83.931-61.147-117.234-109.341c18.892-6.443,37.996-5.353,38.336-5.329c4.865,0.325,9.065-3.349,9.398-8.209
	c0.332-4.866-3.343-9.079-8.208-9.412c-0.737-0.05-18.339-1.179-38.091,4.018c-27.381,7.204-45.659,23.035-52.861,45.78
	c-1.472,4.649,1.104,9.611,5.753,11.083c0.888,0.281,1.783,0.414,2.668,0.414c3.747,0,7.225-2.405,8.417-6.167
	c3.49-11.024,10.349-18.831,18.515-24.357c66.362,97.242,155.541,149.732,265.1,155.992c7.498,0.428,15.073,0.643,22.751,0.643
	c69.124-0.001,145.807-17.404,233.523-52.92c2.337-0.946,4.159-2.849,5.004-5.224C721.074,439.701,726.597,342.83,707.382,236.347z"
	/>
</svg>
