<?xml version="1.0" encoding="utf-8"?>
<!-- Generator: Adobe Illustrator 16.0.0, SVG Export Plug-In . SVG Version: 6.00 Build 0)  -->
<!DOCTYPE svg PUBLIC "-//W3C//DTD SVG 1.1//EN" "http://www.w3.org/Graphics/SVG/1.1/DTD/svg11.dtd" [
	<!ENTITY ns_extend "http://ns.adobe.com/Extensibility/1.0/">
	<!ENTITY ns_ai "http://ns.adobe.com/AdobeIllustrator/10.0/">
	<!ENTITY ns_graphs "http://ns.adobe.com/Graphs/1.0/">
	<!ENTITY ns_vars "http://ns.adobe.com/Variables/1.0/">
	<!ENTITY ns_imrep "http://ns.adobe.com/ImageReplacement/1.0/">
	<!ENTITY ns_sfw "http://ns.adobe.com/SaveForWeb/1.0/">
	<!ENTITY ns_custom "http://ns.adobe.com/GenericCustomNamespace/1.0/">
	<!ENTITY ns_adobe_xpath "http://ns.adobe.com/XPath/1.0/">
]>
<svg version="1.1" id="Capa_1" xmlns:x="&ns_extend;" xmlns:i="&ns_ai;" xmlns:graph="&ns_graphs;"
	 xmlns="http://www.w3.org/2000/svg" xmlns:xlink="http://www.w3.org/1999/xlink" x="0px" y="0px" width="595.28px"
	 height="532.111px" viewBox="123.304 31.585 595.28 532.111" enable-background="new 123.304 31.585 595.28 532.111"
	 xml:space="preserve">
<metadata>
	<sfw  xmlns="&ns_sfw;">
		<slices></slices>
		<sliceSourceBounds  height="532.111" width="595.281" bottomLeftOrigin="true" y="31.444" x="122.859"></sliceSourceBounds>
	</sfw>
</metadata>
<g>
	<g>
		<path fill="#2683c3" d="M323.95,501.769c0-7.433-4.953-12.386-12.385-12.386h-8.669v-26.009c32.202-6.192,56.974-33.441,56.974-68.12
			c0-38.395-30.965-69.359-69.358-69.359c-38.395,0-69.359,30.965-69.359,69.359c0,33.441,24.77,61.928,56.974,68.12v26.009h-8.669
			c-7.432,0-12.385,4.953-12.385,12.386c0,7.432,4.953,12.385,12.385,12.385h42.106C318.995,514.156,323.95,509.201,323.95,501.769z
			 M245.922,396.494c0-24.77,19.817-44.587,44.587-44.587c24.771,0,44.587,19.817,44.587,44.587
			c0,19.817-13.624,37.157-32.201,42.11v-42.11c0-7.432-4.953-12.385-12.386-12.385c-7.432,0-12.385,4.953-12.385,12.385v42.11
			C259.545,432.412,245.922,416.311,245.922,396.494z"/>
		<path  fill="#2683c3" d="M706.662,538.927H555.558c16.102-6.193,29.726-13.625,39.634-23.533c12.385-12.385,17.341-26.01,17.341-42.11
			c0-26.01-16.102-56.974-42.11-87.937l78.028-278.674l42.11-6.192c4.953-1.24,8.669-3.717,9.908-7.433l17.34-44.587
			c2.477-6.192-1.239-13.624-7.432-16.101s-13.624,1.239-16.101,7.432l-13.625,37.157L567.943,93.05
			c-6.192,1.239-11.147,7.433-11.147,13.625c1.239,6.192,6.192,11.147,12.386,11.147h1.238l50.782-7.432l-71.836,253.901
			C477.53,293.693,361.105,229.29,290.509,229.29c-1.239,0-2.477,0-3.716,0l-35.918-94.132h60.688
			c7.432,0,12.385-4.953,12.385-12.385s-4.953-12.385-12.385-12.385H188.948l-23.533-29.726c-3.716-4.953-12.385-6.192-17.34-2.477
			c-4.953,3.716-6.192,12.385-2.477,17.34l27.248,34.679c2.478,2.477,6.193,4.953,9.909,4.953h40.871l37.157,96.606
			c-78.028,13.624-137.479,81.746-137.479,164.728c0,60.688,32.202,112.709,80.505,142.435H135.69
			c-7.433,0-12.386,4.953-12.386,12.385s4.953,12.385,12.386,12.385h569.732c7.432,0,12.385-4.953,12.385-12.385
			C719.047,543.88,714.094,538.927,706.662,538.927z M149.314,396.494c0-78.028,64.403-142.435,142.434-142.435
			C394.549,254.059,589,397.731,589,473.283c0,8.669-3.716,17.34-11.147,24.771c-43.35,42.11-193.214,42.11-266.289,40.87h-19.817
			C213.72,537.687,149.314,474.522,149.314,396.494z"/>
	</g>
</g>
</svg>
