<?xml version="1.0" encoding="utf-8"?>
<!-- Generator: Adobe Illustrator 16.0.0, SVG Export Plug-In . SVG Version: 6.00 Build 0)  -->
<!DOCTYPE svg PUBLIC "-//W3C//DTD SVG 1.1//EN" "http://www.w3.org/Graphics/SVG/1.1/DTD/svg11.dtd" [
	<!ENTITY ns_extend "http://ns.adobe.com/Extensibility/1.0/">
	<!ENTITY ns_ai "http://ns.adobe.com/AdobeIllustrator/10.0/">
	<!ENTITY ns_graphs "http://ns.adobe.com/Graphs/1.0/">
	<!ENTITY ns_vars "http://ns.adobe.com/Variables/1.0/">
	<!ENTITY ns_imrep "http://ns.adobe.com/ImageReplacement/1.0/">
	<!ENTITY ns_sfw "http://ns.adobe.com/SaveForWeb/1.0/">
	<!ENTITY ns_custom "http://ns.adobe.com/GenericCustomNamespace/1.0/">
	<!ENTITY ns_adobe_xpath "http://ns.adobe.com/XPath/1.0/">
]>
<svg version="1.1" id="Capa_1" xmlns:x="&ns_extend;" xmlns:i="&ns_ai;" xmlns:graph="&ns_graphs;"
	 xmlns="http://www.w3.org/2000/svg" xmlns:xlink="http://www.w3.org/1999/xlink" x="0px" y="0px" width="595.281px"
	 height="570.613px" viewBox="123.304 12.334 595.281 570.613" enable-background="new 123.304 12.334 595.281 570.613"
	 xml:space="preserve">
<metadata>
	<sfw  xmlns="&ns_sfw;">
		<slices></slices>
		<sliceSourceBounds  height="570.613" width="595.281" bottomLeftOrigin="true" y="12.193" x="122.859"></sliceSourceBounds>
	</sfw>
</metadata>
<g>
	<path fill="#2683c3" d="M389.252,452.64l198.421-198.437c0.008-0.009,0.017-0.017,0.024-0.025l128.467-128.473c3.229-3.229,3.229-8.449,0-11.678
		l-99.271-99.272c-3.23-3.229-8.449-3.229-11.678,0l-93.509,93.517c-0.008,0-0.008,0.008-0.008,0.008l-34.949,34.949
		c-0.107,0.108-0.198,0.207-0.298,0.314L287.182,332.797c-0.1,0.091-0.19,0.189-0.289,0.289l-8.688,8.688
		c-0.718,0.719-1.296,1.569-1.709,2.502l-77.285,174.589c-11.696-4.206-25.312-1.624-34.64,7.746
		c-4.22,4.221-7.144,9.398-8.589,15.047h-32.678v16.516h32.677c1.462,5.689,4.418,10.9,8.696,15.153
		c6.234,6.21,14.51,9.621,23.305,9.621c0.025,0,0.051,0,0.075,0c8.819-0.017,17.111-3.477,23.338-9.736
		c4.204-4.22,7.127-9.391,8.58-15.022h448.371v-16.516H219.983c-1.026-4.004-2.811-7.759-5.257-11.121l171.94-76.11
		C387.674,453.995,388.533,453.384,389.252,452.64z M611.052,32.274l87.595,87.595l-82.21,82.21l-87.249-87.942L611.052,32.274z
		 M517.51,125.812l87.249,87.95l-22.9,22.9l-35.04-35.04c-1.544-1.553-3.642-2.42-5.839-2.42h-0.008
		c-2.196,0-4.294,0.875-5.838,2.428L363.139,374.286c-0.627-1.354-1.511-2.625-2.692-3.807c-1.023-1.024-2.097-1.884-3.228-2.618
		l172.085-172.095c1.553-1.544,2.42-3.642,2.42-5.838s-0.867-4.286-2.42-5.839l-35.04-35.031L517.51,125.812z M299.783,343.55
		l182.813-182.797l29.192,29.186L337.078,364.633c-2.32,0.23-4.658,0.537-6.971,0.843c-9.158,1.205-18.63,2.46-25.303-1.66
		c-5.285-3.263-6.765-7.862-6.765-11.982C298.04,348.397,299.065,345.292,299.783,343.55z M199.686,561.566
		c-3.113,3.13-7.26,4.855-11.669,4.863c-0.009,0-0.025,0-0.033,0c-4.401,0-8.539-1.709-11.661-4.814
		c-3.131-3.112-4.856-7.274-4.856-11.701c0-4.401,1.702-8.539,4.809-11.652c6.425-6.441,16.904-6.466,23.362-0.049
		c3.138,3.12,4.863,7.274,4.863,11.709C204.493,554.315,202.784,558.453,199.686,561.566z M221.395,509.531l63.481-143.411
		c2.264,4.335,5.847,8.415,11.255,11.749c11.677,7.227,25.262,5.418,36.146,3.981c5.987-0.802,12.684-1.669,15.607-0.289
		c-0.329,2.808-2.684,8.853-4.293,13.023c-0.058,0.133-0.108,0.264-0.165,0.405c-0.025,0.057-0.049,0.115-0.074,0.182
		c-3.436,8.853-7.572,19.737-7.572,30.432c0,5.648,1.156,11.248,4.187,16.467c2.742,4.725,6.086,8.185,9.745,10.661L221.395,509.531
		z M354.255,433.779c-1.388-2.387-1.949-5.203-1.958-8.267c0-7.053,3.007-15.41,5.863-22.826l182.838-183.531l29.191,29.186
		l-191.49,191.491C374.222,441.451,360.837,445.109,354.255,433.779z"/>
</g>
</svg>
