<?xml version="1.0" encoding="utf-8"?>
<!-- Generator: Adobe Illustrator 16.0.0, SVG Export Plug-In . SVG Version: 6.00 Build 0)  -->
<!DOCTYPE svg PUBLIC "-//W3C//DTD SVG 1.1//EN" "http://www.w3.org/Graphics/SVG/1.1/DTD/svg11.dtd" [
	<!ENTITY ns_extend "http://ns.adobe.com/Extensibility/1.0/">
	<!ENTITY ns_ai "http://ns.adobe.com/AdobeIllustrator/10.0/">
	<!ENTITY ns_graphs "http://ns.adobe.com/Graphs/1.0/">
	<!ENTITY ns_vars "http://ns.adobe.com/Variables/1.0/">
	<!ENTITY ns_imrep "http://ns.adobe.com/ImageReplacement/1.0/">
	<!ENTITY ns_sfw "http://ns.adobe.com/SaveForWeb/1.0/">
	<!ENTITY ns_custom "http://ns.adobe.com/GenericCustomNamespace/1.0/">
	<!ENTITY ns_adobe_xpath "http://ns.adobe.com/XPath/1.0/">
]>
<svg version="1.1" id="Capa_1" xmlns:x="&ns_extend;" xmlns:i="&ns_ai;" xmlns:graph="&ns_graphs;"
	 xmlns="http://www.w3.org/2000/svg" xmlns:xlink="http://www.w3.org/1999/xlink" x="0px" y="0px" width="753.968px"
	 height="232.664px" viewBox="-100.594 96.034 753.968 232.664" enable-background="new -100.594 96.034 753.968 232.664"
	 xml:space="preserve">
<metadata>
	<sfw  xmlns="&ns_sfw;">
		<slices></slices>
		<sliceSourceBounds  height="232.664" width="753.968" bottomLeftOrigin="true" y="266.442" x="-101.04"></sliceSourceBounds>
	</sfw>
</metadata>
<g>
	<polygon points="591.104,293.808 615.969,293.839 615.16,225.459 653.343,226.389 653.374,199.748 615.187,200.593 
		616.152,132.216 591.286,132.187 590.321,200.565 542.368,200.51 542.485,97.499 517.622,97.471 517.505,200.482 34.414,199.933 
		35.421,96.034 9.668,96.893 9.551,199.905 -38.403,199.85 -38.325,130.584 -64.078,131.442 -63.269,199.822 -100.566,199.779 
		-100.594,224.645 -63.297,224.688 -64.262,293.065 -38.51,293.981 -38.431,224.716 9.522,224.768 9.405,327.781 35.157,328.698 
		34.386,224.797 517.475,225.346 517.357,328.358 542.223,328.385 542.34,225.374 590.293,225.43 	"/>
</g>
</svg>
