<?xml version="1.0" encoding="utf-8"?>
<!-- Generator: Adobe Illustrator 16.0.0, SVG Export Plug-In . SVG Version: 6.00 Build 0)  -->
<!DOCTYPE svg PUBLIC "-//W3C//DTD SVG 1.1//EN" "http://www.w3.org/Graphics/SVG/1.1/DTD/svg11.dtd" [
	<!ENTITY ns_extend "http://ns.adobe.com/Extensibility/1.0/">
	<!ENTITY ns_ai "http://ns.adobe.com/AdobeIllustrator/10.0/">
	<!ENTITY ns_graphs "http://ns.adobe.com/Graphs/1.0/">
	<!ENTITY ns_vars "http://ns.adobe.com/Variables/1.0/">
	<!ENTITY ns_imrep "http://ns.adobe.com/ImageReplacement/1.0/">
	<!ENTITY ns_sfw "http://ns.adobe.com/SaveForWeb/1.0/">
	<!ENTITY ns_custom "http://ns.adobe.com/GenericCustomNamespace/1.0/">
	<!ENTITY ns_adobe_xpath "http://ns.adobe.com/XPath/1.0/">
]>
<svg version="1.1" id="Capa_1" xmlns:x="&ns_extend;" xmlns:i="&ns_ai;" xmlns:graph="&ns_graphs;"
	 xmlns="http://www.w3.org/2000/svg" xmlns:xlink="http://www.w3.org/1999/xlink" x="0px" y="0px" width="308.666px"
	 height="466.582px" viewBox="78.958 0 308.666 466.582" enable-background="new 78.958 0 308.666 466.582" xml:space="preserve">
<metadata>
	<sfw  xmlns="&ns_sfw;">
		<slices></slices>
		<sliceSourceBounds  height="466.582" width="308.666" bottomLeftOrigin="true" y="64.209" x="266.166"></sliceSourceBounds>
	</sfw>
</metadata>
<g>
	<path d="M233.292,0c-85.1,0-154.334,69.234-154.334,154.333c0,34.275,21.888,90.155,66.908,170.835
		c31.846,57.063,63.168,104.643,64.484,106.64l22.941,34.774l22.941-34.773c1.316-1.998,32.641-49.577,64.482-106.64
		c45.023-80.681,66.908-136.56,66.908-170.835C387.625,69.234,318.391,0,233.292,0z M233.292,233.291c-44.182,0-80-35.816-80-80
		c0-44.183,35.818-80,80-80c44.183,0,80,35.817,80,80C313.292,197.474,277.473,233.291,233.292,233.291z"/>
</g>
</svg>
