<?xml version="1.0" encoding="utf-8"?>
<!-- Generator: Adobe Illustrator 16.0.0, SVG Export Plug-In . SVG Version: 6.00 Build 0)  -->
<!DOCTYPE svg PUBLIC "-//W3C//DTD SVG 1.1//EN" "http://www.w3.org/Graphics/SVG/1.1/DTD/svg11.dtd" [
	<!ENTITY ns_extend "http://ns.adobe.com/Extensibility/1.0/">
	<!ENTITY ns_ai "http://ns.adobe.com/AdobeIllustrator/10.0/">
	<!ENTITY ns_graphs "http://ns.adobe.com/Graphs/1.0/">
	<!ENTITY ns_vars "http://ns.adobe.com/Variables/1.0/">
	<!ENTITY ns_imrep "http://ns.adobe.com/ImageReplacement/1.0/">
	<!ENTITY ns_sfw "http://ns.adobe.com/SaveForWeb/1.0/">
	<!ENTITY ns_custom "http://ns.adobe.com/GenericCustomNamespace/1.0/">
	<!ENTITY ns_adobe_xpath "http://ns.adobe.com/XPath/1.0/">
]>
<svg version="1.1" id="Layer_2" xmlns:x="&ns_extend;" xmlns:i="&ns_ai;" xmlns:graph="&ns_graphs;"
	 xmlns="http://www.w3.org/2000/svg" xmlns:xlink="http://www.w3.org/1999/xlink" x="0px" y="0px" width="165.311px"
	 height="49.705px" viewBox="0 0 165.311 49.705" enable-background="new 0 0 165.311 49.705" xml:space="preserve">
<metadata>
	<sfw  xmlns="&ns_sfw;">
		<slices></slices>
		<sliceSourceBounds  height="49.705" width="165.311" bottomLeftOrigin="true" y="745.498" x="-229.643"></sliceSourceBounds>
	</sfw>
</metadata>
<path fill="#FFFFFF" d="M24.854,44.669c-10.946,0-19.818-8.871-19.818-19.816c0-10.945,8.872-19.817,19.818-19.817
	c5.933,0,11.254,2.61,14.884,6.743h6.244C41.602,4.71,33.781,0,24.854,0C11.126,0,0,11.126,0,24.853
	c0,13.727,11.126,24.852,24.854,24.852c8.91,0,16.717-4.692,21.103-11.738H39.7C36.07,42.076,30.767,44.669,24.854,44.669z"/>
<path fill="#FFFFFF" d="M80.837,25.496c-1.611,0-2.987,1.142-4.129,3.425c-0.279,0.761-1.591,3.424-3.938,7.991h2.321l3.9-7.991
	c0.355-0.761,0.812-1.142,1.369-1.142h3.426l-1.884,9.132h2.283l2.359-11.416H80.837z"/>
<path fill="#FFFFFF" d="M94.973,28.921h-5.709l0.705-3.425h-2.283l-2.36,11.416h7.991c2.285,0,3.661-1.142,4.129-3.424l0.227-1.142
	C98.156,30.062,97.256,28.921,94.973,28.921z M95.391,32.346l-0.227,1.142c-0.166,0.761-0.628,1.141-1.39,1.141h-5.709l0.724-3.425
	h5.707C95.258,31.204,95.556,31.585,95.391,32.346z"/>
<path fill="#FFFFFF" d="M36.755,28.921l-0.951,4.566c-0.469,2.282,0.438,3.424,2.721,3.424h7.991l0.456-2.283h-7.99
	c-0.76,0-1.059-0.38-0.893-1.141l0.95-4.566c0.152-0.761,0.608-1.142,1.37-1.142h7.991l0.476-2.284h-7.99
	C38.6,25.496,37.224,26.638,36.755,28.921z"/>
<polygon fill="#FFFFFF" points="61.431,25.496 50.017,25.496 49.541,27.78 54.107,27.78 52.223,36.912 54.506,36.912 56.39,27.78 
	60.957,27.78 "/>
<polygon fill="#FFFFFF" points="71.704,25.496 63.22,33.412 64.856,25.496 62.573,25.496 60.214,36.912 62.496,36.912 
	70.981,28.998 69.346,36.912 71.628,36.912 73.988,25.496 "/>
<path fill="#FFFFFF" d="M123.511,16.146c0.457-2.27-0.451-3.404-2.721-3.404h-7.99l-2.359,11.415h7.991
	c2.283,0,3.658-1.142,4.128-3.424c0.216-1.04,0.134-1.807-0.248-2.302C122.896,17.96,123.295,17.2,123.511,16.146z M120.275,20.732
	c-0.163,0.761-0.626,1.141-1.388,1.141h-5.708l0.475-2.282h5.708C120.125,19.591,120.429,19.971,120.275,20.732z M121.228,16.165
	c-0.165,0.761-0.628,1.143-1.389,1.143h-5.708l0.476-2.284h5.709C121.077,15.024,121.379,15.404,121.228,16.165z"/>
<polygon fill="#FFFFFF" points="134.489,12.742 133.538,17.308 126.688,17.308 127.641,12.742 125.356,12.742 122.996,24.156 
	125.28,24.156 126.211,19.591 133.061,19.591 132.129,24.156 134.413,24.156 136.772,12.742 "/>
<polygon fill="#FFFFFF" points="152.752,12.742 150.469,12.742 148.112,24.156 150.393,24.156 "/>
<path fill="#FFFFFF" d="M147.674,20.732l0.227-1.141c0.482-2.283-0.418-3.426-2.701-3.426h-5.709l0.705-3.423h-2.283l-2.359,11.415
	h7.99C145.829,24.156,147.206,23.015,147.674,20.732z M139.016,18.449h5.707c0.764,0,1.061,0.381,0.895,1.142l-0.227,1.141
	c-0.166,0.761-0.629,1.141-1.389,1.141h-5.707L139.016,18.449z"/>
<polygon fill="#FFFFFF" points="161.467,9.316 159.184,9.316 158.708,11.601 160.993,11.601 "/>
<polygon fill="#FFFFFF" points="153.819,24.156 162.303,16.243 160.668,24.156 162.95,24.156 165.311,12.742 163.026,12.742 
	154.542,20.656 156.178,12.742 153.895,12.742 151.536,24.156 "/>
<path fill="#FFFFFF" d="M75.052,24.156l0.704-3.424h5.708c2.284,0,3.659-1.141,4.129-3.424l0.247-1.143
	c0.47-2.282-0.437-3.423-2.719-3.423h-7.991L72.77,24.156H75.052z M76.936,15.024h5.708c0.761,0,1.065,0.38,0.914,1.141
	l-0.247,1.143c-0.153,0.761-0.61,1.141-1.371,1.141h-5.708L76.936,15.024z"/>
<polygon fill="#FFFFFF" points="89.893,24.156 92.175,24.156 94.059,15.024 98.626,15.024 99.101,12.742 87.687,12.742 
	87.21,15.024 91.776,15.024 "/>
<polygon fill="#FFFFFF" points="109.376,12.742 100.889,20.656 102.525,12.742 100.242,12.742 97.884,24.156 100.166,24.156 
	108.651,16.243 107.016,24.156 109.299,24.156 111.658,12.742 "/>
<path fill="#FFFFFF" d="M36.755,16.165l-0.951,4.567c-0.469,2.283,0.438,3.424,2.721,3.424h7.991l0.457-2.283h-7.991
	c-0.761,0-1.059-0.38-0.894-1.141l0.95-4.567c0.152-0.761,0.608-1.141,1.37-1.141h7.991l0.476-2.282h-7.99
	C38.6,12.742,37.224,13.883,36.755,16.165z"/>
<polygon fill="#FFFFFF" points="49.939,24.156 51.823,15.024 58.673,15.024 56.788,24.156 59.072,24.156 61.431,12.742 
	50.016,12.742 47.657,24.156 "/>
<path fill="#FFFFFF" d="M63.581,24.346h4.566c2.283,0,3.665-1.142,4.147-3.424l1.027-4.947c0.469-2.283-0.438-3.423-2.72-3.423
	h-4.566c-2.282,0-3.659,1.14-4.129,3.423l-1.026,4.947C60.41,23.205,61.31,24.346,63.581,24.346z M63.163,20.922l1.027-4.947
	c0.153-0.761,0.608-1.142,1.37-1.142h4.566c0.76,0,1.064,0.381,0.913,1.142l-1.027,4.947c-0.165,0.761-0.627,1.142-1.389,1.142
	h-4.566C63.296,22.063,62.998,21.683,63.163,20.922z"/>
<path fill-rule="evenodd" clip-rule="evenodd" fill="#FFFFFF" d="M24.25,15.113c-5.4,0-9.779,4.378-9.779,9.78
	c0,5.4,4.378,9.777,9.779,9.777c5.4,0,9.779-4.377,9.779-9.777C34.029,19.492,29.65,15.113,24.25,15.113z M24.218,29.865
	c2.077,0,3.852-1.3,4.553-3.13h1.394c-0.753,2.573-3.13,4.452-5.947,4.452c-3.424,0-6.198-2.773-6.198-6.197
	c0-3.423,2.774-6.199,6.198-6.199c2.816,0,5.193,1.88,5.947,4.453h-1.394c-0.701-1.831-2.476-3.131-4.553-3.131
	c-2.693,0-4.876,2.184-4.876,4.876C19.342,27.682,21.525,29.865,24.218,29.865z"/>
</svg>
