<?xml version="1.0" encoding="utf-8"?>
<!-- Generator: Adobe Illustrator 16.0.0, SVG Export Plug-In . SVG Version: 6.00 Build 0)  -->
<!DOCTYPE svg PUBLIC "-//W3C//DTD SVG 1.1//EN" "http://www.w3.org/Graphics/SVG/1.1/DTD/svg11.dtd" [
	<!ENTITY ns_extend "http://ns.adobe.com/Extensibility/1.0/">
	<!ENTITY ns_ai "http://ns.adobe.com/AdobeIllustrator/10.0/">
	<!ENTITY ns_graphs "http://ns.adobe.com/Graphs/1.0/">
	<!ENTITY ns_vars "http://ns.adobe.com/Variables/1.0/">
	<!ENTITY ns_imrep "http://ns.adobe.com/ImageReplacement/1.0/">
	<!ENTITY ns_sfw "http://ns.adobe.com/SaveForWeb/1.0/">
	<!ENTITY ns_custom "http://ns.adobe.com/GenericCustomNamespace/1.0/">
	<!ENTITY ns_adobe_xpath "http://ns.adobe.com/XPath/1.0/">
]>
<svg version="1.1" id="Capa_1" xmlns:x="&ns_extend;" xmlns:i="&ns_ai;" xmlns:graph="&ns_graphs;"
	 xmlns="http://www.w3.org/2000/svg" xmlns:xlink="http://www.w3.org/1999/xlink" x="0px" y="0px" width="96.875px"
	 height="67.521px" viewBox="0 14.677 96.875 67.521" enable-background="new 0 14.677 96.875 67.521" xml:space="preserve">
<metadata>
	<sfw  xmlns="&ns_sfw;">
		<slices></slices>
		<sliceSourceBounds  height="67.522" width="96.875" bottomLeftOrigin="true" y="263.739" x="372.063"></sliceSourceBounds>
	</sfw>
</metadata>
<g>
	<path d="M95.201,25.538c-1.186-5.152-5.4-8.953-10.473-9.52c-12.014-1.341-24.172-1.348-36.275-1.341
		c-12.105-0.007-24.266,0-36.279,1.341c-5.07,0.567-9.281,4.368-10.467,9.52C0.019,32.875,0,40.884,0,48.438S0,64,1.688,71.336
		c1.184,5.15,5.396,8.952,10.469,9.52c12.012,1.342,24.172,1.35,36.277,1.342c12.107,0.008,24.263,0,36.275-1.342
		c5.07-0.566,9.285-4.367,10.471-9.52c1.689-7.337,1.695-15.346,1.695-22.898C96.875,40.884,96.889,32.875,95.201,25.538z
		 M35.936,63.475c0-10.717,0-21.321,0-32.038c10.267,5.357,20.466,10.678,30.798,16.068C56.434,52.848,46.23,58.137,35.936,63.475z"
		/>
</g>
</svg>
